<svg width="116" height="87" viewBox="0 0 116 87" fill="none" xmlns="http://www.w3.org/2000/svg">
<path d="M0.508 5.19999H31.288L26.158 54.448H5.638L0.508 5.19999ZM15.898 86.14C11.49 86.14 7.88 84.81 5.068 82.15C2.256 79.49 0.85 76.26 0.85 72.46C0.85 68.584 2.256 65.392 5.068 62.884C7.88 60.3 11.49 59.008 15.898 59.008C20.306 59.008 23.916 60.3 26.728 62.884C29.54 65.392 30.946 68.584 30.946 72.46C30.946 76.26 29.54 79.49 26.728 82.15C23.916 84.81 20.306 86.14 15.898 86.14Z" fill="#C3070D"/>
<path d="M69.4157 65.848L65.3117 70.294V85H39.5477V0.411995H65.3117V40.768L83.2097 22.642H113.648L87.8837 49.66L115.7 85H84.5777L69.4157 65.848Z" fill="white"/>
</svg>
