<svg width="45" height="45" viewBox="0 0 45 45" fill="none" xmlns="http://www.w3.org/2000/svg">
<circle cx="22.5" cy="22.5" r="20.5" transform="rotate(-90 22.5 22.5)" stroke="white" stroke-width="4" stroke-dasharray="2 2"/>
<path d="M25.5 22.5C25.5 25.8137 22.8137 28.5 19.5 28.5C16.1863 28.5 13.5 25.8137 13.5 22.5C13.5 19.1863 16.1863 16.5 19.5 16.5C22.8137 16.5 25.5 19.1863 25.5 22.5Z" stroke="white"/>
<path d="M31.5 22.5C31.5 25.8137 28.8137 28.5 25.5 28.5C22.1863 28.5 19.5 25.8137 19.5 22.5C19.5 19.1863 22.1863 16.5 25.5 16.5C28.8137 16.5 31.5 19.1863 31.5 22.5Z" stroke="white"/>
</svg>
