<svg width="25" height="25" viewBox="0 0 25 25" fill="none" xmlns="http://www.w3.org/2000/svg">
<g opacity="0.2">
<path d="M18.227 22.8324C18.0989 22.8355 17.9718 22.8032 17.8603 22.7386L12.5082 19.9199L7.79573 22.4574C7.02698 22.874 6.06449 22.5886 5.64782 21.8188C5.64261 21.8094 5.6374 21.8001 5.63219 21.7896C5.46865 21.4678 5.41136 21.1042 5.46761 20.748L6.38428 15.3376L2.55303 11.4584C1.92699 10.8126 1.92699 9.78548 2.55303 9.13861C2.79678 8.88236 3.11969 8.71673 3.46969 8.66882L8.72282 7.8709L11.0593 3.00319C11.4228 2.21153 12.3593 1.86361 13.152 2.22715C13.4957 2.38444 13.7707 2.66048 13.928 3.00319L16.2749 7.88757L21.5457 8.69486C21.9718 8.7584 22.3541 8.99382 22.6041 9.34486C23.0707 10.0157 22.9999 10.9219 22.4353 11.5126L18.6218 15.3459L19.153 18.2615C19.227 18.699 18.9384 19.1167 18.502 19.199C18.0728 19.2761 17.6624 18.9907 17.5853 18.5605L17.0447 15.6449C16.9541 15.1105 17.1239 14.5647 17.503 14.1782L21.3259 10.3178L16.0551 9.50007C15.5207 9.41361 15.0676 9.05944 14.8541 8.56257L12.5082 3.69903L10.1332 8.63965C9.91969 9.13757 9.46657 9.49069 8.93219 9.57715L3.67907 10.3751L7.47386 14.2292C7.85198 14.6094 8.02178 15.148 7.93219 15.6761L7.01553 21.0865L11.727 18.5594C12.1937 18.2969 12.7634 18.2969 13.2301 18.5594L18.5749 21.3782C18.9009 21.5563 19.0666 21.9324 18.978 22.2938C18.8968 22.6553 18.578 22.9126 18.2082 22.9188L18.227 22.8324Z" fill="black"/>
</g>
</svg>
