<svg width="25" height="25" viewBox="0 0 25 25" fill="none" xmlns="http://www.w3.org/2000/svg">
<path d="M17.1435 22.7494C17.0154 22.7525 16.8883 22.7202 16.7768 22.6556L11.4247 19.8369L6.71224 22.3744C5.94349 22.791 4.98099 22.5056 4.56432 21.7358C4.55911 21.7264 4.55391 21.7171 4.5487 21.7066C4.38516 21.3848 4.32786 21.0212 4.38411 20.665L5.30078 15.2546L1.46953 11.3754C0.84349 10.7296 0.84349 9.70248 1.46953 9.0556C1.71328 8.79935 2.0362 8.63373 2.3862 8.58581L7.63932 7.78789L9.97578 2.92019C10.3393 2.12852 11.2758 1.7806 12.0685 2.14414C12.4122 2.30144 12.6872 2.57748 12.8445 2.92019L15.1914 7.80456L20.4622 8.61185C20.8883 8.67539 21.2706 8.91081 21.5206 9.26185C21.9872 9.93268 21.9164 10.8389 21.3518 11.4296L17.5383 15.2629L18.0695 18.1785C18.1435 18.616 17.8549 19.0337 17.4185 19.116C16.9893 19.1931 16.5789 18.9077 16.5018 18.4775L15.9612 15.5619C15.8706 15.0275 16.0404 14.4816 16.4195 14.0952L20.2424 10.2348L14.9716 9.41706C14.4372 9.3306 13.9841 8.97644 13.7706 8.47956L11.4247 3.61602L9.04974 8.55664C8.8362 9.05456 8.38307 9.40768 7.8487 9.49414L2.59557 10.2921L6.39036 14.1462C6.76849 14.5264 6.93828 15.065 6.8487 15.5931L5.93203 21.0035L10.6435 18.4764C11.1102 18.2139 11.6799 18.2139 12.1466 18.4764L17.4914 21.2952C17.8174 21.4733 17.9831 21.8494 17.8945 22.2108C17.8133 22.5723 17.4945 22.8296 17.1247 22.8358L17.1435 22.7494Z" fill="#C3070D"/>
</svg>
