<svg width="116" height="87" viewBox="0 0 116 87" fill="none" xmlns="http://www.w3.org/2000/svg">
<path d="M5.638 54.448L0.508 5.19999H31.288L26.158 54.448H5.638ZM15.898 86.14C11.49 86.14 7.88 84.81 5.068 82.15C2.256 79.414 0.85 76.184 0.85 72.46C0.85 68.66 2.256 65.468 5.068 62.884C7.88 60.3 11.49 59.008 15.898 59.008C20.382 59.008 23.992 60.3 26.728 62.884C29.54 65.468 30.946 68.66 30.946 72.46C30.946 76.184 29.54 79.414 26.728 82.15C23.992 84.81 20.382 86.14 15.898 86.14Z" fill="#C3070D"/>
<path d="M61.0937 74.74L61.6637 44.416L83.2097 22.642H113.648L85.1477 52.51L72.2657 62.884L61.0937 74.74ZM39.5477 85V0.411995H65.3117V85H39.5477ZM84.5777 85L67.4777 63.34L83.3237 43.846L115.7 85H84.5777Z" fill="white"/>
</svg>
