<svg width="189" height="40" viewBox="0 0 189 40" fill="none" xmlns="http://www.w3.org/2000/svg">
<g clip-path="url(#clip0_1747_1777)">
<line x1="189" y1="20" x2="3.17865e-08" y2="20" stroke="black" stroke-width="2"/>
<path d="M169 40C169 37.3736 169.517 34.7728 170.522 32.3463C171.528 29.9198 173.001 27.715 174.858 25.8579C176.715 24.0007 178.92 22.5275 181.346 21.5224C183.773 20.5173 186.374 20 189 20L189 21.4C186.557 21.4 184.139 21.8811 181.882 22.8158C179.625 23.7506 177.575 25.1206 175.848 26.8478C174.121 28.575 172.751 30.6254 171.816 32.8821C170.881 35.1387 170.4 37.5574 170.4 40L169 40Z" fill="black"/>
<path d="M189 20C186.374 20 183.773 19.4827 181.346 18.4776C178.92 17.4725 176.715 15.9993 174.858 14.1421C173.001 12.285 171.528 10.0802 170.522 7.65367C169.517 5.22716 169 2.62644 169 -4.76995e-07L170.4 -4.603e-07C170.4 2.44259 170.881 4.86126 171.816 7.11791C172.751 9.37457 174.121 11.425 175.848 13.1522C177.575 14.8794 179.625 16.2494 181.882 17.1842C184.139 18.1189 186.557 18.6 189 18.6L189 20Z" fill="black"/>
</g>
<defs>
<clipPath id="clip0_1747_1777">
<rect width="189" height="40" fill="white"/>
</clipPath>
</defs>
</svg>
