<svg width="209" height="80" viewBox="0 0 209 80" fill="none" xmlns="http://www.w3.org/2000/svg">
<line x1="189" y1="40" x2="3.17865e-08" y2="40" stroke="black" stroke-width="2"/>
<path d="M169 60C169 57.3736 169.517 54.7728 170.522 52.3463C171.528 49.9198 173.001 47.715 174.858 45.8579C176.715 44.0007 178.92 42.5275 181.346 41.5224C183.773 40.5173 186.374 40 189 40L189 41.4C186.557 41.4 184.139 41.8811 181.882 42.8158C179.625 43.7506 177.575 45.1206 175.848 46.8478C174.121 48.575 172.751 50.6254 171.816 52.8821C170.881 55.1387 170.4 57.5574 170.4 60L169 60Z" fill="black"/>
<path d="M189 40C186.374 40 183.773 39.4827 181.346 38.4776C178.92 37.4725 176.715 35.9993 174.858 34.1421C173.001 32.285 171.528 30.0802 170.522 27.6537C169.517 25.2272 169 22.6264 169 20L170.4 20C170.4 22.4426 170.881 24.8613 171.816 27.1179C172.751 29.3746 174.121 31.425 175.848 33.1522C177.575 34.8794 179.625 36.2494 181.882 37.1842C184.139 38.1189 186.557 38.6 189 38.6L189 40Z" fill="black"/>
</svg>
