<svg width="50" height="50" viewBox="0 0 50 50" fill="none" xmlns="http://www.w3.org/2000/svg">
<path d="M24.9999 44.3387C35.8592 44.3387 44.6624 35.5355 44.6624 24.6762C44.6624 13.8169 35.8592 5.01367 24.9999 5.01367C14.1406 5.01367 5.3374 13.8169 5.3374 24.6762C5.3374 35.5355 14.1406 44.3387 24.9999 44.3387Z" fill="#F2C300"/>
<path d="M24.9999 40.2205C33.5848 40.2205 40.5442 33.2611 40.5442 24.6762C40.5442 16.0913 33.5848 9.13184 24.9999 9.13184C16.415 9.13184 9.45557 16.0913 9.45557 24.6762C9.45557 33.2611 16.415 40.2205 24.9999 40.2205Z" fill="#F9D335"/>
<path d="M26.4648 40.1523C25.9824 40.1973 25.4941 40.2207 25 40.2207C16.416 40.2207 9.45508 33.2617 9.45508 24.6758C9.45508 16.0918 16.416 9.13281 25 9.13281C25.4941 9.13281 25.9824 9.15625 26.4648 9.20117C18.5684 9.93945 12.3848 16.5859 12.3848 24.6758C12.3848 32.7676 18.5684 39.4141 26.4648 40.1523Z" fill="#F9E27D"/>
<path d="M40.5449 24.6758C40.5449 33.2617 33.584 40.2207 25 40.2207C24.5059 40.2207 24.0176 40.1973 23.5352 40.1523C31.4316 39.4141 37.6152 32.7676 37.6152 24.6758C37.6152 16.5859 31.4316 9.93945 23.5352 9.20117C24.0176 9.15625 24.5059 9.13281 25 9.13281C33.584 9.13281 40.5449 16.0918 40.5449 24.6758Z" fill="#F2C300"/>
<path d="M44.819 44.9857H5.18154C4.90518 44.9857 4.68115 44.7617 4.68115 44.4854V36.5316C4.68115 36.2553 4.90518 36.0312 5.18154 36.0312H44.819C45.0954 36.0312 45.3194 36.2553 45.3194 36.5316V44.4854C45.3194 44.7617 45.0954 44.9857 44.819 44.9857Z" fill="#44C7B6"/>
<path d="M0.846191 37.7793L1.89463 40.5092L0.846191 43.2389H4.68076V41.4467V39.5717V37.7793H0.846191Z" fill="#4BDBC3"/>
<path d="M49.1539 43.2389L48.1055 40.5092L49.1539 37.7793H45.3193V39.5717V41.4465V43.2389H49.1539Z" fill="#3BB2A0"/>
<path d="M8.11133 44.9854H5.18164C4.9043 44.9854 4.68164 44.7607 4.68164 44.4854V36.5303C4.68164 36.2549 4.9043 36.0303 5.18164 36.0303H8.11133C7.83399 36.0303 7.61133 36.2549 7.61133 36.5303V44.4854C7.61133 44.7607 7.83399 44.9854 8.11133 44.9854Z" fill="#4BDBC3"/>
<path d="M45.3184 36.5303V44.4854C45.3184 44.7607 45.0957 44.9854 44.8184 44.9854H41.8887C42.166 44.9854 42.3887 44.7607 42.3887 44.4854V36.5303C42.3887 36.2549 42.166 36.0303 41.8887 36.0303H44.8184C45.0957 36.0303 45.3184 36.2549 45.3184 36.5303Z" fill="#3BB2A0"/>
<path d="M48.9422 40.5088L49.883 38.059C50.0795 37.5477 49.701 36.9977 49.1537 36.9977H46.1004V36.5318C46.1004 35.8252 45.5256 35.2502 44.8188 35.2502H42.4971C50.7098 21.7104 40.9123 4.23242 25 4.23242C9.0969 4.23242 -0.715596 21.7008 7.50276 35.2506H5.18128C4.47464 35.2506 3.89964 35.8254 3.89964 36.5322V36.998H0.846318C0.298466 36.998 -0.0792682 37.5484 0.117021 38.0594L1.05784 40.5092L0.117021 42.959C-0.0792682 43.4703 0.299052 44.0203 0.846318 44.0203H3.89964V44.4861C3.89964 45.1928 4.47444 45.7678 5.18128 45.7678H44.8188C45.5254 45.7678 46.1004 45.193 46.1004 44.4861V44.0203H49.1537C49.7016 44.0203 50.0793 43.4699 49.883 42.959L48.9422 40.5088ZM3.89964 42.4574H1.98323L2.62405 40.7889C2.69319 40.6086 2.69319 40.4092 2.62405 40.2289L1.98323 38.5603H3.89964V42.4574ZM25 5.79492C40.1498 5.79492 49.0742 22.8111 40.6391 35.2506H37.4309C46.4315 24.6559 38.8682 8.35156 25 8.35156C11.1032 8.35156 3.59261 24.6842 12.569 35.2506H9.36097C0.928154 22.8145 9.8469 5.79492 25 5.79492ZM35.2932 35.2504H14.7069C5.26136 26.0609 11.7692 9.91406 25 9.91406C38.2328 9.91406 44.7377 26.0619 35.2932 35.2504ZM44.5379 44.2047H5.46214C5.46214 41.5096 5.46214 39.509 5.46214 36.8129H44.5377C44.5379 39.5082 44.5379 41.5086 44.5379 44.2047ZM47.376 40.7889L48.0168 42.4574H46.1004V38.5603H48.0168L47.376 40.2289C47.3069 40.4092 47.3069 40.6086 47.376 40.7889Z" fill="#5F266D"/>
<path d="M6.96396 42.898C7.0079 43.0713 7.16376 43.1926 7.34247 43.1926H7.95693C8.1329 43.1926 8.2872 43.0748 8.33368 42.9049L8.93329 40.7125L9.46142 42.8937C9.5038 43.0689 9.66083 43.1924 9.84111 43.1924H10.4556C10.6304 43.1924 10.7837 43.0764 10.8313 42.9082L12.1212 38.3564C12.1919 38.1072 12.0042 37.8594 11.7454 37.8594H11.1444C10.9667 37.8594 10.8114 37.9791 10.7665 38.151L10.195 40.3332L9.67372 38.1588C9.63153 37.9832 9.4745 37.8594 9.29384 37.8594H8.67958C8.50224 37.8594 8.34736 37.9787 8.30185 38.15L7.71064 40.3838L7.18935 38.1607C7.14794 37.9844 6.99032 37.8594 6.80907 37.8594H6.18759C5.93329 37.8594 5.74638 38.099 5.80907 38.3461L6.96396 42.898Z" fill="#5F266D"/>
<path d="M12.3256 43.1924H12.9334C13.102 43.1924 13.2514 43.0842 13.3043 42.9242L13.6883 41.7607H14.74L15.1363 42.9275C15.19 43.0859 15.3389 43.1924 15.5062 43.1924H16.1344C16.4023 43.1924 16.5904 42.9283 16.5041 42.6756L14.9508 38.1238C14.8969 37.9654 14.7482 37.8594 14.5811 37.8594H13.8719C13.7047 37.8594 13.5559 37.966 13.502 38.1242L11.9555 42.676C11.8699 42.9287 12.0576 43.1924 12.3256 43.1924ZM14.2123 40.1066L14.3531 40.5201H14.0723L14.2123 40.1066Z" fill="#5F266D"/>
<path d="M17.5456 43.192H18.1331C18.3487 43.192 18.5237 43.017 18.5237 42.8014V41.2199H18.6722C18.9507 41.2305 19.1015 41.2609 19.2177 41.8002C19.403 42.6209 19.4853 42.8607 19.5646 42.9975C19.6345 43.1178 19.7632 43.192 19.9024 43.192H20.5101C20.6476 43.192 20.7749 43.1197 20.8454 43.0016C20.9159 42.8836 20.9192 42.7371 20.854 42.6162C20.7747 42.4686 20.6329 41.8635 20.5398 41.4648C20.4648 41.1363 20.3456 40.8699 20.1837 40.6668C20.5356 40.3697 20.7388 39.9398 20.7388 39.4514C20.7388 38.9844 20.5648 38.5734 20.2521 38.2973C19.8909 37.9707 19.404 37.8252 18.6733 37.8252C18.2308 37.8252 17.7798 37.8635 17.4669 37.9277C17.2853 37.9648 17.1548 38.125 17.1548 38.3104V42.801C17.155 43.017 17.3298 43.192 17.5456 43.192ZM18.5237 39.0639C18.98 39.0398 19.37 39.092 19.37 39.5195C19.37 39.9742 18.9204 39.9934 18.5237 39.9934V39.0639Z" fill="#5F266D"/>
<path d="M21.9209 43.1918H22.5084C22.724 43.1918 22.899 43.0168 22.899 42.8012V41.2197H23.0473C23.326 41.2303 23.4768 41.2607 23.5928 41.8002C23.7785 42.6209 23.8606 42.8605 23.9395 42.9969C24.0092 43.1176 24.1381 43.1918 24.2775 43.1918H24.8854C25.1813 43.1918 25.369 42.875 25.2291 42.6158C25.15 42.4691 25.0084 41.8635 24.915 41.4646C24.8399 41.1363 24.7207 40.8699 24.559 40.6668C24.9107 40.3697 25.1139 39.9398 25.1139 39.4514C25.1139 38.9844 24.94 38.5736 24.6274 38.2973C24.2662 37.9707 23.7793 37.8252 23.0484 37.8252C22.6057 37.8252 22.1547 37.8635 21.8422 37.9277C21.6605 37.965 21.5303 38.125 21.5303 38.3104V42.801C21.5303 43.0168 21.7053 43.1918 21.9209 43.1918ZM22.899 39.0637C22.9535 39.0607 23.0156 39.059 23.085 39.059C23.7453 39.0662 23.7453 39.3723 23.7453 39.5193C23.7453 39.9469 23.3006 39.9932 23.1094 39.9932H22.899V39.0637Z" fill="#5F266D"/>
<path d="M25.9856 43.1924H26.5932C26.7618 43.1924 26.9112 43.0842 26.9641 42.9242L27.3485 41.7607H28.4002L28.7965 42.9275C28.8502 43.0859 28.999 43.1924 29.1664 43.1924H29.7946C30.0619 43.1924 30.2506 42.9289 30.1643 42.6756L28.6112 38.1238C28.5573 37.9654 28.4084 37.8594 28.2414 37.8594H27.5323C27.3651 37.8594 27.2162 37.966 27.1623 38.1242L25.6159 42.676C25.5297 42.9287 25.7176 43.1924 25.9856 43.1924ZM27.8721 40.1062L28.0129 40.5201H27.7321L27.8721 40.1062Z" fill="#5F266D"/>
<path d="M31.2046 43.1926H31.7583C31.9739 43.1926 32.1489 43.0176 32.1489 42.802C32.1489 40.6848 32.1491 40.7412 32.1481 40.534C32.2296 40.6658 32.1511 40.5395 33.6964 43.0092C33.7679 43.1234 33.8929 43.1926 34.0274 43.1926H34.6218C34.8374 43.1926 35.0124 43.0176 35.0124 42.802V38.2502C35.0124 38.0346 34.8374 37.8596 34.6218 37.8596H34.0679C33.8522 37.8596 33.6772 38.0346 33.6772 38.2502C33.6772 40.1412 33.6769 40.2191 33.6778 40.4127C33.6427 40.3564 32.2116 38.0971 32.1761 38.041C32.1044 37.9279 31.98 37.8594 31.8462 37.8594H31.2046C30.989 37.8594 30.814 38.0344 30.814 38.25V42.8018C30.814 43.0176 30.989 43.1926 31.2046 43.1926Z" fill="#5F266D"/>
<path d="M35.8706 39.1404H36.8644V42.8018C36.8644 43.0174 37.0394 43.1924 37.255 43.1924H37.8493C38.0649 43.1924 38.2399 43.0174 38.2399 42.8018V39.1404H39.2405C39.4561 39.1404 39.6311 38.9654 39.6311 38.7498V38.25C39.6311 38.0344 39.4561 37.8594 39.2405 37.8594H35.8706C35.655 37.8594 35.48 38.0344 35.48 38.25V38.7498C35.48 38.9656 35.6548 39.1404 35.8706 39.1404Z" fill="#5F266D"/>
<path d="M41.3007 40.9705V42.8018C41.3007 43.0174 41.4757 43.1924 41.6914 43.1924H42.2857C42.5013 43.1924 42.6763 43.0174 42.6763 42.8018V40.9691L44.1494 38.4471C44.3013 38.1867 44.113 37.8594 43.8121 37.8594H43.1433C42.9978 37.8594 42.8642 37.9402 42.797 38.0693C41.8919 39.8053 42.2212 39.173 42.0252 39.5543C41.9404 39.3846 41.9113 39.3289 41.2697 38.0725C41.2029 37.9416 41.0685 37.8594 40.9218 37.8594H40.2533C39.956 37.8594 39.7685 38.1787 39.9109 38.4379L41.3007 40.9705Z" fill="#5F266D"/>
<path d="M19.2314 21.3055H17.6199V17.2069C17.6199 16.2995 16.1475 16.3048 16.1475 17.2069V21.9901C16.1475 22.3632 16.451 22.6667 16.824 22.6667H19.2314C19.6045 22.6667 19.908 22.3632 19.908 21.9819C19.908 21.6089 19.6045 21.3055 19.2314 21.3055Z" fill="#5F266D"/>
<path d="M21.5664 17.2055V21.9887C21.5664 22.3618 21.8699 22.6653 22.243 22.6653H22.3621C22.7352 22.6653 23.0387 22.3618 23.0387 21.9887V17.2055C23.0389 16.3141 21.5664 16.2911 21.5664 17.2055Z" fill="#5F266D"/>
<path d="M25.8103 16.5303C25.4373 16.5303 25.1338 16.8338 25.1338 17.2068V21.99C25.1338 22.3631 25.4373 22.6666 25.8103 22.6666H25.9295C26.3025 22.6666 26.6061 22.3631 26.6061 21.99V20.2434H27.9555C28.3285 20.2434 28.632 19.9396 28.632 19.5666C28.632 19.1936 28.3285 18.89 27.9555 18.89H26.6061V17.8916H28.1223C28.4953 17.8916 28.7988 17.5881 28.7988 17.2068C28.7988 16.8338 28.4953 16.5303 28.1223 16.5303H25.8103Z" fill="#5F266D"/>
<path d="M34.4643 21.982C34.4643 21.609 34.1607 21.3055 33.7877 21.3055H32.1443V20.1561H33.5494C33.9225 20.1561 34.226 19.8523 34.226 19.4791C34.226 19.1061 33.9225 18.8025 33.5494 18.8025H32.1443V17.8916H33.6686C34.0416 17.8916 34.3451 17.5881 34.3451 17.2068C34.3451 16.8338 34.0416 16.5303 33.6686 16.5303H31.3484C30.9754 16.5303 30.6719 16.8338 30.6719 17.2068V21.99C30.6719 22.3631 30.9754 22.6666 31.3484 22.6666H33.7877C34.1607 22.6668 34.4643 22.3635 34.4643 21.982Z" fill="#5F266D"/>
<path d="M18.2464 24.3428H14.8538C14.4808 24.3428 14.1772 24.6463 14.1772 25.0353C14.1772 25.4084 14.4808 25.7119 14.8538 25.7119H15.806V29.8025C15.806 30.7088 17.2864 30.7064 17.2864 29.8025V25.7119H18.2466C18.6196 25.7119 18.9231 25.4084 18.9231 25.0193C18.9231 24.6463 18.6194 24.3428 18.2464 24.3428Z" fill="#5F266D"/>
<path d="M20.4062 25.018V29.8012C20.4062 30.7089 21.8787 30.7034 21.8787 29.8012V25.018C21.8787 24.1266 20.4062 24.1036 20.4062 25.018Z" fill="#5F266D"/>
<path d="M29.0852 24.3428H28.6715C28.3893 24.3428 28.1342 24.5207 28.0365 24.7859L27.1504 27.1936C27.077 27.4012 27.0106 27.5943 26.9502 27.7752C26.8924 27.5939 26.8289 27.4012 26.759 27.1937L25.9127 24.7945C25.8174 24.5244 25.5612 24.3428 25.2746 24.3428H24.8617C24.5078 24.3428 24.2113 24.6193 24.1867 24.9725L23.8531 29.7553C23.7891 30.6705 25.2322 30.7371 25.2875 29.8445L25.4139 27.8152C25.4158 27.7807 25.418 27.7461 25.4199 27.7115L26.193 29.9883C26.4035 30.6086 27.3694 30.6051 27.5887 30.0018L28.4656 27.5926C28.4696 27.5822 28.4733 27.5721 28.477 27.5617C28.4805 27.6281 28.484 27.6936 28.4873 27.7574L28.6071 29.8412C28.658 30.7289 30.1157 30.6777 30.0588 29.7603L29.7608 24.9773C29.7383 24.6215 29.4416 24.3428 29.0852 24.3428Z" fill="#5F266D"/>
<path d="M35.0272 25.7041C35.4003 25.7041 35.7038 25.4006 35.7038 25.0193C35.7038 24.6463 35.4003 24.3428 35.0272 24.3428H32.7073C32.3343 24.3428 32.0308 24.6463 32.0308 25.0193V29.8025C32.0308 30.1756 32.3343 30.4791 32.7073 30.4791H35.1466C35.5196 30.4791 35.8231 30.1756 35.8231 29.7943C35.8231 29.4213 35.5196 29.1178 35.1466 29.1178H33.5032V27.9684H34.9083C35.2813 27.9684 35.5849 27.6646 35.5849 27.2914C35.5849 26.9184 35.2813 26.6148 34.9083 26.6148H33.5032V25.7039H35.0272V25.7041Z" fill="#5F266D"/>
<path d="M31.4232 13.2463C31.267 13.1399 31.1019 13.0373 30.9326 12.9413C30.5572 12.7289 30.0806 12.8608 29.8677 13.236C29.655 13.6114 29.7871 14.0881 30.1625 14.3008C30.572 14.5329 30.6652 14.6731 30.9826 14.6731C31.7482 14.6733 32.0576 13.6788 31.4232 13.2463Z" fill="#5F266D"/>
<path d="M27.7926 13.4407C28.7314 13.4407 28.8643 12.0725 27.9414 11.8924C26.7084 11.6516 25.3451 11.5702 24.2379 11.6284C23.8076 11.6575 23.4828 12.0297 23.5115 12.46C23.5402 12.8901 23.91 13.2145 24.3428 13.1875C25.8301 13.0582 27.5973 13.4407 27.7926 13.4407Z" fill="#5F266D"/>
</svg>
