<svg width="50" height="50" viewBox="0 0 50 50" fill="none" xmlns="http://www.w3.org/2000/svg">
<path d="M48.4995 25.0078V33.752C48.4995 34.8301 47.6245 35.7051 46.5464 35.7051H32.3062V15.2422H38.7339C44.1265 15.2422 48.4995 19.6152 48.4995 25.0078Z" fill="#F9D335"/>
<path d="M32.3068 35.7043H5.36328C4.28457 35.7043 3.41016 34.8299 3.41016 33.7512V11.5137C3.41016 10.435 4.28457 9.56055 5.36328 9.56055H30.3537C31.4324 9.56055 32.3068 10.435 32.3068 11.5137V35.7043Z" fill="#FF4A73"/>
<path d="M40.3269 40.4389C42.9417 40.4389 45.0614 38.3191 45.0614 35.7043C45.0614 33.0895 42.9417 30.9697 40.3269 30.9697C37.712 30.9697 35.5923 33.0895 35.5923 35.7043C35.5923 38.3191 37.712 40.4389 40.3269 40.4389Z" fill="#87828E"/>
<path d="M12.237 40.4389C14.8518 40.4389 16.9716 38.3191 16.9716 35.7043C16.9716 33.0895 14.8518 30.9697 12.237 30.9697C9.62218 30.9697 7.50244 33.0895 7.50244 35.7043C7.50244 38.3191 9.62218 40.4389 12.237 40.4389Z" fill="#87828E"/>
<path d="M45.0179 25.1689H35.3931V18.5029H40.1351C42.8317 18.5029 45.0179 20.6891 45.0179 23.3857V25.1689Z" fill="#FFE2E2"/>
<path d="M17.8545 30.1523C22.0074 30.1523 25.374 26.7857 25.374 22.6328C25.374 18.4799 22.0074 15.1133 17.8545 15.1133C13.7016 15.1133 10.335 18.4799 10.335 22.6328C10.335 26.7857 13.7016 30.1523 17.8545 30.1523Z" fill="#FFE2E2"/>
<path d="M20.9218 22.6612C20.9218 22.6605 20.9218 22.6597 20.9218 22.6589C20.9224 22.628 20.9218 22.597 20.9199 22.5661C20.9193 22.5575 20.9189 22.5491 20.9183 22.5405C20.9164 22.5183 20.9134 22.496 20.9101 22.4739C20.9078 22.4583 20.9056 22.4429 20.9027 22.4277C20.8998 22.4128 20.8963 22.3982 20.8927 22.3835C20.8877 22.362 20.8824 22.3407 20.8761 22.3196C20.8734 22.311 20.8705 22.3025 20.8676 22.2939C20.859 22.2675 20.8496 22.2413 20.8388 22.2159C20.8373 22.2124 20.8357 22.2089 20.8342 22.2054C20.6884 21.8655 20.3734 21.6085 19.9801 21.5569L18.1174 21.3136L19.6103 19.7392C20.0217 19.3054 20.0035 18.6204 19.5697 18.2091C19.1361 17.7978 18.4509 17.8159 18.0396 18.2497L15.0855 21.3648C15.082 21.3685 15.0793 21.3724 15.076 21.3759C15.0582 21.395 15.0414 21.415 15.0252 21.4353C15.0197 21.4421 15.014 21.4489 15.0088 21.4558C14.9908 21.4794 14.974 21.5038 14.958 21.529C14.9552 21.5333 14.9521 21.5376 14.9494 21.5421C14.932 21.57 14.9162 21.5989 14.9013 21.6286C14.9006 21.6302 14.8998 21.6316 14.899 21.6331C14.8478 21.7368 14.8117 21.8501 14.7959 21.9712C14.7363 22.4271 14.9695 22.8534 15.35 23.0614C15.4642 23.1239 15.592 23.1667 15.7289 23.1845L17.5685 23.4249L15.5416 25.5167C15.1256 25.946 15.1365 26.6312 15.5656 27.0472C15.6373 27.1167 15.7164 27.1743 15.8 27.22C16.2166 27.4478 16.7496 27.3806 17.0961 27.023L20.6181 23.3882C20.8156 23.1849 20.9156 22.9237 20.9218 22.6612Z" fill="#F9D335"/>
<path d="M17.8864 25.5167C17.6247 25.7862 17.531 26.1573 17.6052 26.4972L17.0974 27.0226C16.7497 27.38 16.2165 27.4483 15.8005 27.2198C15.7165 27.1749 15.6384 27.1163 15.5661 27.046C15.1364 26.63 15.1267 25.9464 15.5427 25.5167L17.5681 23.4249L15.7302 23.1847C15.5915 23.1671 15.4646 23.1241 15.3513 23.0616C14.9704 22.8526 14.7361 22.4269 14.7966 21.9718C14.8122 21.8507 14.8493 21.7374 14.9001 21.6339C14.9001 21.6319 14.9021 21.63 14.9021 21.628C14.9157 21.5987 14.9333 21.5694 14.9509 21.5421C14.9528 21.5382 14.9548 21.5343 14.9587 21.5284C14.9743 21.503 14.9919 21.4796 15.0095 21.4562C15.0153 21.4484 15.0212 21.4425 15.0251 21.4347C15.0427 21.4151 15.0583 21.3956 15.0759 21.3761C15.0798 21.3722 15.0837 21.3683 15.0857 21.3644L18.0407 18.2491C18.4509 17.8155 19.1364 17.798 19.57 18.2101C19.736 18.3683 19.8415 18.5655 19.8845 18.7745L17.4294 21.3644C17.4275 21.3683 17.4235 21.3722 17.4196 21.3761C17.4021 21.3956 17.3864 21.4151 17.3689 21.4347C17.365 21.4425 17.3591 21.4484 17.3532 21.4562C17.3357 21.4796 17.3181 21.503 17.3025 21.5284C17.2985 21.5343 17.2966 21.5382 17.2946 21.5421C17.2771 21.5694 17.2595 21.5987 17.2458 21.628C17.2458 21.63 17.2439 21.6319 17.2439 21.6339C17.1931 21.7374 17.156 21.8507 17.1403 21.9718C17.0798 22.4269 17.3142 22.8526 17.695 23.0616C17.8083 23.1241 17.9353 23.1671 18.0739 23.1847L19.9118 23.4249L17.8864 25.5167Z" fill="#F9E27D"/>
<path d="M8.29248 35.7051H5.36279C4.28467 35.7051 3.40967 34.8301 3.40967 33.752V11.5137C3.40967 10.4355 4.28467 9.56055 5.36279 9.56055H8.29248C7.21436 9.56055 6.33936 10.4355 6.33936 11.5137V33.752C6.33936 34.8301 7.21436 35.7051 8.29248 35.7051Z" fill="#F973A3"/>
<path d="M32.3062 11.5137V35.7051H29.3765V11.5137C29.3765 10.4355 28.5034 9.56055 27.4233 9.56055H30.353C31.4331 9.56055 32.3062 10.4355 32.3062 11.5137Z" fill="#EA2A6A"/>
<path d="M32.3062 15.2422H35.2358V35.7051H32.3062V15.2422Z" fill="#F9E27D"/>
<path d="M48.4995 25.0078V33.752C48.4995 34.8301 47.6245 35.7051 46.5464 35.7051H43.6167C44.6948 35.7051 45.5698 34.8301 45.5698 33.752V25.0078C45.5698 19.6152 41.1968 15.2422 35.8042 15.2422H38.7339C44.1265 15.2422 48.4995 19.6152 48.4995 25.0078Z" fill="#F2C300"/>
<path d="M45.0171 23.3867V25.1699H42.0874V23.3867C42.0874 20.6894 39.9019 18.5039 37.2046 18.5039H40.1343C42.8315 18.5039 45.0171 20.6894 45.0171 23.3867Z" fill="#FFCFCF"/>
<path d="M35.3921 18.5039H38.3218V25.1699H35.3921V18.5039Z" fill="#FFEFEE"/>
<path d="M45.062 35.7041C45.062 38.3193 42.9409 40.4385 40.3276 40.4385C39.8159 40.4385 39.3237 40.3584 38.8628 40.2061C40.7593 39.5908 42.1323 37.8076 42.1323 35.7041C42.1323 33.6006 40.7593 31.8174 38.8628 31.2021C39.3237 31.0498 39.8159 30.9697 40.3276 30.9697C42.9409 30.9697 45.062 33.0889 45.062 35.7041Z" fill="#796E84"/>
<path d="M41.7925 40.2061C41.3315 40.3584 40.8394 40.4385 40.3276 40.4385C37.7124 40.4385 35.5913 38.3193 35.5913 35.7041C35.5913 33.0889 37.7124 30.9697 40.3276 30.9697C40.8394 30.9697 41.3315 31.0498 41.7925 31.2021C39.894 31.8174 38.521 33.6006 38.521 35.7041C38.521 37.8076 39.894 39.5908 41.7925 40.2061Z" fill="#A4A4A5"/>
<path d="M16.9722 35.7041C16.9722 38.3193 14.8511 40.4385 12.2378 40.4385C11.7261 40.4385 11.2339 40.3584 10.7729 40.2061C12.6694 39.5908 14.0425 37.8076 14.0425 35.7041C14.0425 33.6006 12.6694 31.8174 10.7729 31.2021C11.2339 31.0498 11.7261 30.9697 12.2378 30.9697C14.8511 30.9697 16.9722 33.0889 16.9722 35.7041Z" fill="#796E84"/>
<path d="M13.7026 40.2061C13.2417 40.3584 12.7495 40.4385 12.2378 40.4385C9.62256 40.4385 7.50342 38.3193 7.50342 35.7041C7.50342 33.0889 9.62256 30.9697 12.2378 30.9697C12.7495 30.9697 13.2417 31.0498 13.7026 31.2021C11.8042 31.8174 10.4331 33.6006 10.4331 35.7041C10.4331 37.8076 11.8042 39.5908 13.7026 40.2061Z" fill="#A4A4A5"/>
<path d="M25.3745 22.6328C25.3745 26.7852 22.0073 30.1524 17.855 30.1524C17.353 30.1524 16.8647 30.1035 16.3901 30.0098C19.8413 29.3281 22.4448 26.2832 22.4448 22.6328C22.4448 18.9824 19.8413 15.9375 16.3901 15.2559C16.8647 15.1621 17.353 15.1133 17.855 15.1133C22.0073 15.1133 25.3745 18.4805 25.3745 22.6328Z" fill="#FFCFCF"/>
<path d="M19.3198 30.0098C18.8452 30.1035 18.3569 30.1524 17.855 30.1524C13.7026 30.1524 10.3354 26.7852 10.3354 22.6328C10.3354 18.4805 13.7026 15.1133 17.855 15.1133C18.3569 15.1133 18.8452 15.1621 19.3198 15.2559C15.8687 15.9375 13.2651 18.9824 13.2651 22.6328C13.2651 26.2832 15.8687 29.3281 19.3198 30.0098Z" fill="#FFEFEE"/>
<path d="M38.7308 14.4609H33.0843V11.5137C33.0843 10.0059 31.8577 8.7793 30.3499 8.7793H5.35967C3.85186 8.7793 2.62529 10.0059 2.62529 11.5137V18.9453H1.50342C1.07197 18.9453 0.722168 19.2951 0.722168 19.7266C0.722168 20.158 1.07197 20.5078 1.50342 20.5078H2.6251V26.4975H1.50342C1.07197 26.4975 0.722168 26.8473 0.722168 27.2787C0.722168 27.7102 1.07197 28.06 1.50342 28.06H2.6251V33.752C2.6251 35.2598 3.85166 36.4863 5.35947 36.4863H6.77549C7.1544 39.1582 9.45713 41.2207 12.2345 41.2207C15.0099 41.2207 17.3146 39.1582 17.6935 36.4863H34.8634C35.2423 39.1582 37.547 41.2207 40.3243 41.2207C43.0997 41.2207 45.4044 39.1582 45.7833 36.4863H46.5431C48.0509 36.4863 49.2774 35.2598 49.2774 33.752V25.0078C49.2776 19.1934 44.5472 14.4609 38.7308 14.4609ZM12.2347 39.6582C10.0481 39.6582 8.28154 37.8768 8.28154 35.7051C8.28154 33.5328 10.0489 31.752 12.2347 31.752C14.4214 31.752 16.1878 33.5336 16.1878 35.7051C16.1878 37.8777 14.4202 39.6582 12.2347 39.6582ZM31.5218 34.9238C30.1489 34.9238 19.1071 34.9238 17.6937 34.9238C17.3147 32.252 15.0101 30.1895 12.2347 30.1895C9.45732 30.1895 7.15459 32.252 6.77568 34.9238H5.35967C4.71318 34.9238 4.18779 34.3984 4.18779 33.752C4.18779 33.0119 4.18779 30.8111 4.18779 28.06H9.08369C9.51514 28.06 9.86494 27.7102 9.86494 27.2787C9.86494 26.8473 9.51514 26.4975 9.08369 26.4975H4.18779C4.18779 24.5805 4.18779 22.4992 4.18779 20.5078H6.54463C6.97607 20.5078 7.32588 20.158 7.32588 19.7266C7.32588 19.2951 6.97607 18.9453 6.54463 18.9453H4.18779C4.18779 15.3729 4.18779 12.3486 4.18779 11.5137C4.18779 10.8672 4.71318 10.3418 5.35967 10.3418H30.3499C30.9964 10.3418 31.5218 10.8672 31.5218 11.5137V34.9238ZM40.3245 39.6582C38.1374 39.6582 36.3694 37.8783 36.3694 35.7051C36.3694 33.5348 38.1345 31.752 40.3245 31.752C42.511 31.752 44.2776 33.5336 44.2776 35.7051C44.2776 37.8771 42.5107 39.6582 40.3245 39.6582ZM47.7151 33.752C47.7151 34.3984 47.1898 34.9238 46.5433 34.9238H45.7835C45.4046 32.252 43.0999 30.1895 40.3245 30.1895C37.5472 30.1895 35.2425 32.252 34.8636 34.9238H33.0843V16.0234H38.7308C43.6839 16.0234 47.7151 20.0547 47.7151 25.0078V33.752Z" fill="#5F266D"/>
<path d="M12.2349 32.9473C10.7089 32.9473 9.47705 34.1916 9.47705 35.7051C9.47705 37.2195 10.7089 38.4609 12.2349 38.4609C13.7565 38.4609 14.9907 37.2215 14.9907 35.7051C14.9907 34.1914 13.7583 32.9473 12.2349 32.9473ZM12.2349 36.8984C11.5685 36.8984 11.0396 36.3547 11.0396 35.7051C11.0396 35.0584 11.5661 34.5098 12.2349 34.5098C12.8905 34.5098 13.4282 35.043 13.4282 35.7051C13.4282 36.3707 12.8876 36.8984 12.2349 36.8984Z" fill="#5F266D"/>
<path d="M40.3247 32.9473C38.7989 32.9473 37.5669 34.1916 37.5669 35.7051C37.5669 37.2178 38.7972 38.4609 40.3247 38.4609C41.8464 38.4609 43.0806 37.2215 43.0806 35.7051C43.0806 34.1914 41.8481 32.9473 40.3247 32.9473ZM40.3247 36.8984C39.6585 36.8984 39.1294 36.3547 39.1294 35.7051C39.1294 35.0584 39.656 34.5098 40.3247 34.5098C40.9804 34.5098 41.5181 35.043 41.5181 35.7051C41.5181 36.3707 40.9772 36.8984 40.3247 36.8984Z" fill="#5F266D"/>
<path d="M40.1313 17.7227H35.3892C34.9575 17.7227 34.6079 18.0723 34.6079 18.5039V25.1699C34.6079 25.6015 34.9575 25.9512 35.3892 25.9512H45.0142C45.4458 25.9512 45.7954 25.6015 45.7954 25.1699V23.3867C45.7954 20.2637 43.2544 17.7227 40.1313 17.7227ZM44.2329 24.3887H36.1704V19.2852H40.1313C42.3931 19.2852 44.2329 21.125 44.2329 23.3867V24.3887Z" fill="#5F266D"/>
<path d="M37.6254 27.2158H35.5883C34.5574 27.2158 34.5543 28.7783 35.5883 28.7783H37.6254C38.6615 28.7783 38.6555 27.2158 37.6254 27.2158Z" fill="#5F266D"/>
<path d="M28.5688 11.4932H24.3735C23.9419 11.4932 23.5923 11.8428 23.5923 12.2744C23.5923 12.7061 23.9419 13.0557 24.3735 13.0557H28.5688C28.6763 13.0557 28.7642 13.1436 28.7642 13.251V14.9443C28.7642 15.9836 30.3266 15.9811 30.3266 14.9443C30.3266 14.2477 30.3266 13.9412 30.3266 13.251C30.3266 12.2822 29.5376 11.4932 28.5688 11.4932Z" fill="#5F266D"/>
<path d="M28.7642 17.8732V19.1799C28.7642 20.2121 30.3267 20.223 30.3267 19.1799V17.8732C30.3267 16.8363 28.7642 16.8342 28.7642 17.8732Z" fill="#5F266D"/>
<path d="M17.8589 14.333C13.2808 14.333 9.55811 18.0576 9.55811 22.6338C9.55811 27.21 13.2808 30.9346 17.8589 30.9346C22.4351 30.9346 26.1597 27.21 26.1597 22.6338C26.1597 18.0576 22.4351 14.333 17.8589 14.333ZM17.8589 29.3721C14.1421 29.3721 11.1206 26.3486 11.1206 22.6338C11.1206 18.9189 14.1421 15.8955 17.8589 15.8955C21.5737 15.8955 24.5972 18.9189 24.5972 22.6338C24.5972 26.3486 21.5737 29.3721 17.8589 29.3721Z" fill="#5F266D"/>
<path d="M19.7436 20.7377L20.1811 20.2767C21.8819 18.4891 19.1598 15.9344 17.478 17.7123C14.2858 21.0775 14.3754 20.941 14.2104 21.2709C14.2085 21.2768 14.2045 21.2826 14.2026 21.2885C13.7473 22.199 13.9946 23.743 15.9292 23.9975L14.9838 24.974C13.2727 26.7365 15.9436 29.3398 17.6616 27.5658L21.1831 23.931C21.9499 23.1412 22.1858 21.0586 19.7436 20.7377ZM20.062 22.8451L16.5385 26.4799C16.2571 26.773 15.8342 26.3396 16.1069 26.06L18.1342 23.9682C18.5772 23.5125 18.3143 22.7353 17.6733 22.6498C17.585 22.6383 15.8067 22.418 15.728 22.3764C15.5436 22.2709 15.5381 22.0324 15.6186 21.9525C15.6858 21.8627 18.5336 18.8699 18.6108 18.7885C18.8807 18.4973 19.3192 18.9101 19.0483 19.2025L17.5542 20.7767C17.118 21.2383 17.386 22.0047 18.0209 22.0892L19.8823 22.3314C20.1415 22.365 20.2225 22.6799 20.062 22.8451Z" fill="#5F266D"/>
<path d="M10.195 15.9512C10.195 15.5197 9.84521 15.1699 9.41377 15.1699H7.13525C6.70381 15.1699 6.354 15.5197 6.354 15.9512C6.354 16.3826 6.70381 16.7324 7.13525 16.7324H9.41396C9.84521 16.7324 10.195 16.3824 10.195 15.9512Z" fill="#5F266D"/>
<path d="M7.56983 22.7217H6.19092C5.75947 22.7217 5.40967 23.0715 5.40967 23.5029C5.40967 23.9344 5.75947 24.2842 6.19092 24.2842H7.56983C8.00127 24.2842 8.35108 23.9344 8.35108 23.5029C8.35108 23.0715 8.00127 22.7217 7.56983 22.7217Z" fill="#5F266D"/>
</svg>
