<svg xmlns="http://www.w3.org/2000/svg">
    <symbol viewBox="0 0 24 24" id="profile">
        <path
            d="M8.05836 7.35387C8.05836 5.19392 9.82642 3.43696 12 3.43696C14.1736 3.43696 15.9416 5.19392 15.9416 7.35387C15.9416 9.51281 14.1736 11.2698 12 11.2698C9.82642 11.2698 8.05836 9.51281 8.05836 7.35387ZM6.61233 7.35387C6.61233 10.3048 9.02943 12.7067 12 12.7067C14.9706 12.7067 17.3867 10.3048 17.3867 7.35387C17.3867 4.40194 14.9706 2 12 2C9.02943 2 6.61233 4.40194 6.61233 7.35387ZM10.9776 21.985C11.3127 21.995 11.6538 22 12 22C15.4345 22 20 21.619 20 18.3301C20 14.6392 13.9784 14.6392 12 14.6392C8.56553 14.6392 4 15.0202 4 18.3101C4 19.2951 4.46088 20.624 6.6566 21.363C7.03597 21.493 7.44453 21.288 7.57333 20.913C7.70113 20.538 7.49887 20.131 7.1205 20.004C5.61811 19.4981 5.44503 18.7951 5.44503 18.3101C5.44503 16.8271 7.65082 16.0751 12 16.0751C16.3492 16.0751 18.555 16.8341 18.555 18.3301C18.555 19.8121 16.3492 20.563 12 20.563C11.6679 20.563 11.3409 20.559 11.0189 20.55C10.6325 20.553 10.2883 20.851 10.2772 21.247C10.2652 21.644 10.5791 21.975 10.9776 21.985Z"
            fill="black" />
    </symbol>
    <symbol viewBox="0 0 24 24" id="cart">
        <path
            d="M21.4895 6.66448C21.0925 6.19609 20.5155 5.92669 19.9085 5.92669H9.16377C8.74978 5.92669 8.41378 6.26956 8.41378 6.69203C8.41378 7.11451 8.74978 7.45738 9.16377 7.45738H19.9085C20.1435 7.45738 20.2895 7.588 20.3555 7.66556C20.4215 7.74413 20.5275 7.91047 20.4935 8.14721L19.5445 14.8404C19.4695 15.365 19.0215 15.7609 18.5015 15.7609H7.59081C7.03782 15.7609 6.58683 15.3374 6.54083 14.7761L5.57786 3.06939C5.54986 2.72243 5.29486 2.43772 4.95887 2.37854L2.87792 2.01015C2.46493 1.9428 2.08094 2.2173 2.01095 2.63467C1.94095 3.05102 2.21394 3.44696 2.62193 3.51942L4.13189 3.78576L5.04587 14.9037C5.15787 16.265 6.25184 17.2916 7.59081 17.2916H18.5015C19.7625 17.2916 20.8485 16.3323 21.0285 15.0598L21.9784 8.36661C22.0654 7.7523 21.8864 7.13287 21.4895 6.66448ZM5.90795 20.455C5.90795 19.6029 6.58793 18.909 7.42291 18.909C8.25789 18.909 8.93687 19.6029 8.93687 20.455C8.93687 21.3071 8.25789 22 7.42291 22C6.58793 22 5.90795 21.3071 5.90795 20.455ZM17.1607 20.455C17.1607 19.6029 17.8396 18.909 18.6746 18.909C19.5096 18.909 20.1896 19.6029 20.1896 20.455C20.1896 21.3071 19.5096 22 18.6746 22C17.8396 22 17.1607 21.3071 17.1607 20.455ZM17.6488 10.4643C17.6488 10.8868 17.3128 11.2296 16.8988 11.2296H14.1258C13.7109 11.2296 13.3759 10.8868 13.3759 10.4643C13.3759 10.0418 13.7109 9.69893 14.1258 9.69893H16.8988C17.3128 9.69893 17.6488 10.0418 17.6488 10.4643Z"
            fill="black" />
    </symbol>
    <symbol viewBox="0 0 25 25" id="star">
        <path
            d="M18.227 22.8324C18.0989 22.8355 17.9718 22.8032 17.8603 22.7386L12.5082 19.9199L7.79573 22.4574C7.02698 22.874 6.06449 22.5886 5.64782 21.8188C5.64261 21.8094 5.6374 21.8001 5.63219 21.7896C5.46865 21.4678 5.41136 21.1042 5.46761 20.748L6.38428 15.3376L2.55303 11.4584C1.92699 10.8126 1.92699 9.78548 2.55303 9.13861C2.79678 8.88236 3.11969 8.71673 3.46969 8.66882L8.72282 7.8709L11.0593 3.00319C11.4228 2.21153 12.3593 1.86361 13.152 2.22715C13.4957 2.38444 13.7707 2.66048 13.928 3.00319L16.2749 7.88757L21.5457 8.69486C21.9718 8.7584 22.3541 8.99382 22.6041 9.34486C23.0707 10.0157 22.9999 10.9219 22.4353 11.5126L18.6218 15.3459L19.153 18.2615C19.227 18.699 18.9384 19.1167 18.502 19.199C18.0728 19.2761 17.6624 18.9907 17.5853 18.5605L17.0447 15.6449C16.9541 15.1105 17.1239 14.5647 17.503 14.1782L21.3259 10.3178L16.0551 9.50007C15.5207 9.41361 15.0676 9.05944 14.8541 8.56257L12.5082 3.69903L10.1332 8.63965C9.91969 9.13757 9.46657 9.49069 8.93219 9.57715L3.67907 10.3751L7.47386 14.2292C7.85198 14.6094 8.02178 15.148 7.93219 15.6761L7.01553 21.0865L11.727 18.5594C12.1937 18.2969 12.7634 18.2969 13.2301 18.5594L18.5749 21.3782C18.9009 21.5563 19.0666 21.9324 18.978 22.2938C18.8968 22.6553 18.578 22.9126 18.2082 22.9188L18.227 22.8324Z" />
    </symbol>
    <symbol viewBox="0 0 30 30" id="color-black">
        <circle cx="15" cy="15" r="15" fill="#000000" />
    </symbol>
    <symbol viewBox="0 0 30 30" id="color-navy">
        <circle cx="15" cy="15" r="15" fill="#5F5F44" />
    </symbol>
    <symbol viewBox="0 0 30 30" id="color-blue">
        <circle cx="15" cy="15" r="15" fill="#2B2E44" />
    </symbol>
    <symbol viewBox="0 0 30 30" id="color-blue/red">
        <path
            d="M25.6201 4.40707C24.2272 3.01419 22.5736 1.9093 20.7537 1.15548C18.9339 0.401659 16.9833 0.0136721 15.0135 0.0136721C13.0437 0.0136722 11.0931 0.401659 9.27324 1.15548C7.45336 1.9093 5.79977 3.01419 4.40689 4.40707C3.01402 5.79995 1.90912 7.45354 1.1553 9.27342C0.401483 11.0933 0.0134962 13.0438 0.0134963 15.0137C0.0134964 16.9835 0.401483 18.934 1.1553 20.7539C1.90912 22.5738 3.01402 24.2274 4.4069 25.6203L15.0135 15.0137L25.6201 4.40707Z"
            fill="#2B2E44" />
        <path
            d="M4.40676 25.6193C5.79964 27.0122 7.45322 28.1171 9.27311 28.8709C11.093 29.6247 13.0435 30.0127 15.0134 30.0127C16.9832 30.0127 18.9337 29.6247 20.7536 28.8709C22.5735 28.1171 24.2271 27.0122 25.62 25.6193C27.0128 24.2264 28.1177 22.5728 28.8716 20.7529C29.6254 18.9331 30.0134 16.9825 30.0134 15.0127C30.0134 13.0429 29.6254 11.0923 28.8716 9.27244C28.1177 7.45256 27.0128 5.79897 25.62 4.40609L15.0134 15.0127L4.40676 25.6193Z"
            fill="#E40930" />
    </symbol>
    <symbol viewBox="0 0 30 30" id="color-navy/blue">
        <path
            d="M25.6201 4.40707C24.2272 3.01419 22.5736 1.9093 20.7537 1.15548C18.9339 0.401659 16.9833 0.0136721 15.0135 0.0136721C13.0437 0.0136722 11.0931 0.401659 9.27324 1.15548C7.45336 1.9093 5.79977 3.01419 4.40689 4.40707C3.01402 5.79995 1.90912 7.45354 1.1553 9.27342C0.401483 11.0933 0.0134962 13.0438 0.0134963 15.0137C0.0134964 16.9835 0.401483 18.934 1.1553 20.7539C1.90912 22.5738 3.01402 24.2274 4.4069 25.6203L15.0135 15.0137L25.6201 4.40707Z"
            fill="#5F5F44" />
        <path
            d="M4.40676 25.6193C5.79964 27.0122 7.45322 28.1171 9.27311 28.8709C11.093 29.6247 13.0435 30.0127 15.0134 30.0127C16.9832 30.0127 18.9337 29.6247 20.7536 28.8709C22.5735 28.1171 24.2271 27.0122 25.62 25.6193C27.0128 24.2264 28.1177 22.5728 28.8716 20.7529C29.6254 18.9331 30.0134 16.9825 30.0134 15.0127C30.0134 13.0429 29.6254 11.0923 28.8716 9.27244C28.1177 7.45256 27.0128 5.79897 25.62 4.40609L15.0134 15.0127L4.40676 25.6193Z"
            fill="#2B2E44" />
    </symbol>
    <symbol viewBox="0 0 24 24" id="arrow">
        <path fill-rule="evenodd" clip-rule="evenodd"
            d="M5.32166 16.3291C4.99896 16.5802 4.53642 16.5535 4.24169 16.256C3.92017 15.9303 3.91907 15.4005 4.24059 15.0725L11.4172 7.74651L11.5013 7.67131C11.6477 7.55732 11.8234 7.5 11.9999 7.5C12.2095 7.5 12.4202 7.58254 12.5804 7.74428C12.903 8.06998 12.9041 8.5998 12.5826 8.92773L5.40597 16.2538L5.32166 16.3291ZM19.7572 16.2559C19.4357 16.5805 18.9145 16.5827 18.5929 16.2537L13.8283 11.3882L13.7549 11.3023C13.5103 10.9734 13.5358 10.5033 13.8316 10.2048C13.9918 10.043 14.2025 9.96049 14.4121 9.96049C14.6228 9.96049 14.8345 10.043 14.9948 10.207L19.7605 15.0724L19.8339 15.1584C20.0785 15.4873 20.0529 15.9573 19.7572 16.2559Z"
            fill="black" />
    </symbol>
    <symbol viewBox="0 0 50 50" id="user__icon">
        <path fill-rule="evenodd" clip-rule="evenodd"
            d="M17.9898 16.7364C17.9898 12.8951 21.1342 9.77041 24.9998 9.77041C28.8655 9.77041 32.0099 12.8951 32.0099 16.7364C32.0099 20.576 28.8655 23.7007 24.9998 23.7007C21.1342 23.7007 17.9898 20.576 17.9898 16.7364ZM15.4181 16.7365C15.4181 21.9845 19.7168 26.2563 24.9998 26.2563C30.2829 26.2563 34.5798 21.9845 34.5798 16.7365C34.5798 11.4866 30.2829 7.21484 24.9998 7.21484C19.7168 7.21484 15.4181 11.4866 15.4181 16.7365ZM23.1816 42.7573C23.7775 42.7751 24.3842 42.784 24.9999 42.784C31.1079 42.784 39.2275 42.1064 39.2275 36.2572C39.2275 29.6931 28.5183 29.6931 24.9999 29.6931C18.8918 29.6931 10.7722 30.3706 10.7722 36.2216C10.7722 37.9734 11.5919 40.3369 15.4969 41.6511C16.1716 41.8823 16.8982 41.5177 17.1272 40.8508C17.3545 40.1839 16.9948 39.4601 16.3219 39.2342C13.65 38.3344 13.3421 37.0841 13.3421 36.2216C13.3421 33.5842 17.265 32.2469 24.9999 32.2469C32.7347 32.2469 36.6576 33.5967 36.6576 36.2572C36.6576 38.8928 32.7347 40.2284 24.9999 40.2284C24.4093 40.2284 23.8276 40.2213 23.255 40.2053C22.5677 40.2106 21.9557 40.7406 21.936 41.4448C21.9145 42.1508 22.4729 42.7395 23.1816 42.7573Z"
            fill="black" />
        <path
            d="M50 25C50 38.8071 38.8071 50 25 50C11.1929 50 0 38.8071 0 25C0 11.1929 11.1929 0 25 0C38.8071 0 50 11.1929 50 25ZM2.5 25C2.5 37.4264 12.5736 47.5 25 47.5C37.4264 47.5 47.5 37.4264 47.5 25C47.5 12.5736 37.4264 2.5 25 2.5C12.5736 2.5 2.5 12.5736 2.5 25Z"
            fill="black" />
    </symbol>
    <symbol viewBox="0 0 30 30" id="google">
        <path d="M16.9231 13.5V17.25H26C25.0769 22.5 20.7692 26.25 15.3846 26.25C9.07692 26.25 3.84615 21.15 3.84615 15C3.84615 8.85 9.07692 3.75 15.3846 3.75C18.6154 3.75 21.3846 5.1 23.3846 7.2L26.1538 4.5C23.3846 1.8 19.6923 0 15.3846 0C6.92308 0 0 6.75 0 15C0 23.25 6.92308 30 15.3846 30C23.8462 30 30 23.25 30 15V13.5H16.9231Z"/>
    </symbol>
    <symbol viewBox="0 0 15 30" id="facebook">
        <path d="M12.2625 4.98125H15.0013V0.21125C14.5288 0.14625 12.9038 0 11.0113 0C7.0625 0 4.3575 2.48375 4.3575 7.04875V11.25H0V16.5825H4.3575V30H9.7V16.5837H13.8813L14.545 11.2513H9.69875V7.5775C9.7 6.03625 10.115 4.98125 12.2625 4.98125Z"/>
    </symbol>
</svg>