<svg width="60" height="18" viewBox="0 0 60 18" fill="none" xmlns="http://www.w3.org/2000/svg">
<path d="M16.928 0.199999V17H11.264V10.808H6.032V17H0.368V0.199999H6.032V6.152H11.264V0.199999H16.928ZM34.0439 11.432L32.7719 12.848V17H27.2039V0.199999H32.7719V6.296L38.2919 0.199999H44.4599L37.7399 7.592L44.7959 17H38.2439L34.0439 11.432ZM59.5235 12.728V17H45.5555V0.199999H59.2115V4.472H51.1235V6.44H58.2275V10.52H51.1235V12.728H59.5235Z" fill="black"/>
<path d="M18.8171 0.199999H25.2971L24.2171 10.568H19.8971L18.8171 0.199999ZM22.0571 17.24C21.1291 17.24 20.3691 16.96 19.7771 16.4C19.1851 15.84 18.8891 15.16 18.8891 14.36C18.8891 13.544 19.1851 12.872 19.7771 12.344C20.3691 11.8 21.1291 11.528 22.0571 11.528C22.9851 11.528 23.7451 11.8 24.3371 12.344C24.9291 12.872 25.2251 13.544 25.2251 14.36C25.2251 15.16 24.9291 15.84 24.3371 16.4C23.7451 16.96 22.9851 17.24 22.0571 17.24Z" fill="#C3070D"/>
</svg>
